<?xml version="1.0" encoding="UTF-8"?>
<svg id="Capa_1" xmlns="http://www.w3.org/2000/svg" version="1.1" viewBox="0 0 1179.1 670.3">
  <!-- Generator: Adobe Illustrator 29.2.1, SVG Export Plug-In . SVG Version: 2.1.0 Build 116)  -->
  <defs>
    <style>
      .st0 {
        fill: #134271;
      }

      .st1 {
        fill: #fec417;
      }

      .st2 {
        fill: #f6e329;
      }

      .st3 {
        fill: #4e7fa8;
      }

      .st4 {
        fill: #fff;
      }
    </style>
  </defs>
  <path class="st4" d="M332.2,482.3c1.5-6.6,7.9-41.7-19.4-60.1-10.6-7.2-23.7-9.8-36.4-7.9-18,2.8-45.2,14.4-60.6,56.8,0,0-33.9,86.1,41.6,147.8,1.3,1.1,2.6,2.1,3.7,3.3,9.1,8.9,65.6,57.2,191.8,22.7,1.6-.4,3.1-.9,4.6-1.5,21.4-8.1,192.8-70.6,262-30.6,1.7,1,3.4,1.8,5.2,2.6,8.3,3.5,33.7,16.1,46.9,41.8,0,0,15.1,26.7,38.4,3.7,7.9-7.8,13-18,14.6-29,2.8-18.6.4-49.6-36.4-73-3.3-2.1-6.8-3.7-10.4-5-19.2-6.7-83.7-23.8-196.2-2.6-1.1.2-2.1.4-3.2.7-15.2,3.8-138.2,34.2-179.7,26.7s-5.8-.7-8.7-.8c-16.9-.3-72.3-7.7-58.3-92.8.2-1,.4-1.9.6-2.9Z"/>
  <path class="st3" d="M287.9,516.2l5.6-40.2s0,0,0,0c.3-1.4,7.6-37.4-31.6-.1-.1.1-.2.3-.3.4-2.2,4.4-34.2,69.4,22.2,117.3.2.2.4.3.7.4,5.3,1.3,33.8,34.4,72,28.4,1.6-.3,1.8-2.5.2-3-19.2-6.1-76.6-30.4-68.8-103.1Z"/>
  <path class="st3" d="M769.5,598.8s20.6,21.8,22.1,46.2c0,.3.3.5.6.5,3.2-.4,19.4-3.4,10.7-26.8s0,0,0,0c-.2-.5-13.2-31-56.8-37.1-.6,0-.9.8-.3,1,5.8,2.1,15.1,6.7,23.7,16.1Z"/>
  <path class="st4" d="M93.8,359s-23.7-50.5-72.6,0c0,0-69.5,97.9,43.4,143.7,0,0,121.6,49,199.8-140.5,0,3.9,67.4,1.6,98.4-11.1,0,0-47.9,103,17.6,157.3,0,0,51.3,25.9,96.3-3.3,0,0,46.7,42.6,113.8-18.2,0,0,60.9,71.9,149.7.8,0,0,28.1,44.2,85.3,26.8,0,0-.5,109,121.1,95.5,0,0,112.9-5.6,95.5-151.2,0,0,172.9-58,130.3-203.3,0,0-22.9-53.7-69.5-48.2,0,0-43.4-6.3-71.1,43.4,0,0-62.4-40.3-112.1,21.3l-9.5-4.7s32.4-43.4,1.6-77.4c0,0,30.8-19.7-6.3-61.6,0,0-24.5-24.5-64.7,0,0,0-36.4-26.1-67.9.8,0,0-29.2-27.6-66.3,2.4,0,0-5.5-18.9-51.3-10.3,0,0,2.1-1.8-7.4-1.4h-57.2s-23.9-1.5-22.2,31c0,0-5.8,27.7,17.1,34.3l.4,71.1s-41-23.5-63.6,1.2c0,0-15.6-8.7-26.4-10,0,0,66.1-129.2-47.4-209.5,0,0-171.1-98.4-293.3,21,0,0-41.3,36.1-36.7,98.9,0,0,6.4,51.8,66.4,65.2,0,0-27,111-90.9,135.8Z"/>
  <path class="st1" d="M169.3,339.1c-.9.9-1.6,2-2.1,3.2-2.5,5.7-13.6,24.9-56.8,46.5,0,0-28.3,14.8-43.8-11.9-.2-.3-.3-.6-.5-.9-1-2.3-7.4-13.8-20.2,6.6,0,0-32.2,48.6,11.5,79.8.4.3.9.6,1.3.8,7.3,3.9,66.9,32.4,121.1-29.5,0,0,47-57.9,59.8-99,.6-2,1.7-3.8,3.3-5.1s5.1-3,9.7-1.9c0,0,80.3,10.8,143.5-25.8,0,0,92.3-49.3,84.1-143.3,0-.3,0-.5,0-.8,0-3.9-2.7-57.7-43.8-84.2-.4-.3-.8-.6-1.2-.9-6.3-5.4-71.7-58.4-186.6-29.9,0,0-91.4,21.5-95.6,104.1,0,.5,0,1,0,1.5.5,5.8,4.8,38.7,40.9,42s12-4.2,12.2-10.6c1-25.9,10.6-91.2,81-108.6.4,0,.8-.2,1.1-.2,7.4-1.1,81.4-10.5,115.4,37.1.6.9,1.1,1.9,1.5,2.9,3.7,11.1,22.4,76.4-28,135.2,0,0-45.3,52.4-106.5,44.1,3.5.4-14.5,3.2-8.2-10.3.2-.4.3-.8.5-1.1l27.8-80.6c.2-.5.4-.9.6-1.4,2.6-5.1,19.1-37.3,29.2-42.9s1.1-.5,1.6-.6c1.7-.5,7.9-3.5-2-16.7s-.6-.8-.8-1.2c-2.4-4.2-18.4-29.2-52.6-5.9-.3.2-.5.4-.8.6-3.4,2.8-26,22.7-39.1,74.5,0,0-32.8,108-57.6,134.5Z"/>
  <path class="st2" d="M180.3,401c.4-.8-.5-1.5-1.2-1-10.2,7-50.2,33.3-80.2,37.9,0,0-28.1,3.4-45.6-3.4-.5-.2-1,.1-1.1.6-.7,4.4,0,22,59.8,16.5-2.1.2,48.1-8.1,68.3-50.6Z"/>
  <path class="st1" d="M492.6,282.3s-71.5-23.7-107.7,103c0,.1,0,.2-.1.3-1.4,4.1-30.8,90.7,35,100.1-2-.3,27,6.2,58.7-26.2s9.4-2,10.6,2.8c2.4,9.2,8.4,20,23.4,21.4,0,0,28.3,7.9,55.7-24.7,0,0,33.7-37.6,34.5-45.1,0,0-9.1,67.1,55,69.8.2,0,.4,0,.6,0,3.5.5,42.9,5.1,87.6-46.9,3.6-4.2,10.4-2,11,3.5,2.3,20.3,13.1,50.6,57.5,43,0,0,59.5-6.6,86.6-107.9.1-.5.4-1,.6-1.4,3-5.5,15.8-71.3-23.4-88.1-.1,0-.3-.1-.4-.2-3.8-1.4-53.7-18.4-86.1,36.4-.1.2-.2.4-.4.5-1.8,2.5-16.8,22.8-21.7,39.1-.1.4-.3.8-.5,1.1-3.6,6.7-40.2,73.2-74.6,76.4,0,0-42.6,9.9-27.1-59.4,0-.3.2-.7.3-1,1.7-4.4,15.1-37.5,25.2-45.3,0,0,8.7-6.3,14.5-7,.3,0,.6,0,.9,0,2.3,0,11,.8,7,6.6,0,0-15.4,20-.4,27.4,0,0,13.3,8.1,25.2-6.7.4-.5.7-1.1,1-1.7,2.5-6.6,15.7-46.1-21.4-66.3-.2,0-.3-.2-.5-.2-3.4-1.5-38.9-16.1-77.2,19.5-.4.4-.8.9-1.1,1.4-3.3,5.5-23.7,39.2-26.9,49.4-.1.4-.3.7-.4,1.1-3.3,6.3-35.8,67.7-56.3,76.4,0,0-15.2,9.5-10.1-19.1,0-.3.1-.5.2-.8,1.9-6,25.9-83.7,36.4-99.7s1.8-1.8,3-2.3,1.6-2.5-4.3-10.9-.3-.4-.4-.6c-1.2-2.3-10.3-17.5-31-19.3,0,0-5.4-4.4-12.8,16.5,0,.2-.1.3-.2.5l-4.7,10.1c-.2.3-.3.7-.6,1-.9,1.3-3.6,4.3-7.4,3.1s-3.4-2.4-3.8-4.5c-1.1-4.9-6.3-17.4-29.2-24.9Z"/>
  <path class="st2" d="M698.7,306.7c-9.1,4.4-27.7,14.7-34.5,28.6s0,0,0,0c-1,1.4-24.8,37.1-26.8,62.8,0,0-6.7,47.3,22.9,57.1.9.3,1,1.6.2,2-8.3,3.9-34.5,14.1-40.1-9.7,0,0,0-.1,0-.2-.1-2.3-2.3-44.7,4.4-60.2,0,0,0,0,0,0,.7-2.3,26.7-87.7,73.4-83.7,1.7.2,2.2,2.5.6,3.3Z"/>
  <path class="st2" d="M851.3,304.6c1.5.1,1.8,2.3.3,2.8-8.4,2.9-23.8,10.2-33.2,26.4,0,0-22.7,33.7-24.7,49.4,0,0-9.4,40.9.9,55.3,0,0,8.1,13,19.4,17.4s.9,1.5,0,1.8c-5.7,2.8-22.2,9.4-35.2-.9-.1,0-.2-.2-.3-.3-.8-1.5-12.3-18-4.6-51.9,0,0,15.5-62.6,34.3-78.5,0,0,0,0,.1-.1,1.1-1.5,17.7-23.5,42.9-21.3Z"/>
  <path class="st4" d="M506.1,343.1s2.5-17.7-15-15.8c0,0-26.2,9.1-39.9,46.4,0,0-20,44.9,0,59.9,0,0,18.1,9.6,39.7-34.3,0,0,18.1-34.5,15.2-56.1Z"/>
  <path class="st4" d="M878.8,338.3s-4.8-21.8-27,0c0,0-28.5,28.9-32.4,72.2,0,0-3.1,27.2,12.5,24.1,0,0,23.5-10.4,36.4-46,1,.2,13.7-29.3,10.6-50.3Z"/>
  <path class="st1" d="M922.9,440s-71.3,19.6-64.8,82c0,0,20.2,77.3,95.1,52.9,0,0,64.8-9.5,55.9-108.2,0,0,0-19.6-3.6-20.8,0,0-3.1-3,4.4-5.9,0,0,104.9-41.6,126.3-101,0,4,35.7-71.9-24.4-96.9,0,0-26.7-9.5-47.5,16,0,0-5.3,3,4.8,14.3,0,0,24.4,41.6-18.4,95.1,0,0-32.1,30.3-48.4,38,3.2-1.7-8,11.9-11.6-5.9,0,0-19-64.8-17.2-71.1,0,0-.6-15.9,14.9-6.3,0,0,39.2,9,26.7-35,0,0-13.8-32.2-63.6-3.6l-20.8,38.5s-6.5,13.2,3,31.6c0,0,17.8,52.9,18.4,65.4,0,0,4.2,8.3-3,10.7l-26.1,10.1Z"/>
  <path class="st4" d="M956,477.2s5-19.3-8.7-13.4c0,0-48,19-54,46.8,0,0,.9,19.3,28.7,10.6,0,0,27.8-10.9,34-44Z"/>
  <path class="st2" d="M908.4,468.9c-7.9,4.8-20.2,13.7-23.6,24.1s0,0,0,.1c-.7,1.3-14.9,27.5,0,46.8s-.2,1.6-1,1.2c-3.9-1.8-11.2-7.2-16.3-22.7,0,0,0,0,0,0-.3-1.2-5.7-26.3,15-39.7,0,0,12.3-9,24.8-12.3,1.6-.4,2.5,1.8,1.1,2.6Z"/>
  <path class="st2" d="M1094.8,273.4s-5.8-7.3-1.9-8.9c0,0,15-3.7,21.2,6.2,0,0,17.9,18.7,2.3,57.4,0,0,0,0,0,0-.4.8-18.2,38.3-44.2,51.4-.7.4-1.4-.5-.9-1.2,6.6-8.3,26.4-35.7,27.4-64.8,0,0,1-31.8-4-40.1Z"/>
  <polygon class="st0" points="611.7 160.9 611.7 253.5 628.8 253.5 628.8 160.9 645.4 160.9 645.4 145 594.2 145 594.2 160.9 611.7 160.9"/>
  <polygon class="st0" points="662.3 145 644.1 253.5 660.6 253.5 665.3 228.4 681.5 228.4 686.5 253.5 703.8 253.5 685.6 145 662.3 145"/>
  <polygon class="st4" points="667.6 211.9 679.2 211.9 673.9 173.5 667.6 211.9"/>
  <path class="st0" d="M749.5,182.2v-14.5s-1.9-6.8-9.4-7.1c1.1,0-8.3-.4-8.8,6.6-.4,7.1,0,63.5,0,63.5,0,0,.7,7.1,9,7.5,8.3.4,9.2-7.1,9.2-7.1v-17.5h17.3v21.2s-2.1,20.1-26.3,20.5-26.1-22.4-26.1-22.4v-70.8s6.6-20.1,26.2-19,26.2,22.4,26.2,22.4v16.7h-17.3Z"/>
  <path class="st0" d="M832,164.5s-3.2-21.9-25.7-21.4-25.9,20.1-25.9,20.1v72.9s2.6,18.6,25.8,19.2c23.2.6,25.8-20.3,25.8-20.3v-70.5Z"/>
  <path class="st4" d="M814.3,167.5s-.9-6.6-8-7.1c-7.2-.4-9.9,5.3-9.9,5.3v65.4s1.7,6.6,9,6.6,9-5.6,9-5.6v-64.8Z"/>
  <path class="st0" d="M883.1,171.3l16.7-2.8s-1.5-25.3-26.3-25.5c-24.8-.2-26.9,22.9-26.9,22.9v13.3s6.8,13.4,14.3,19.9l18.2,18.4s6.6,9,1.9,16.5c0,0-4.3,8.3-13.3,3.8,0,0-6.8-5.1-6.2-15h-15s-3.8,22.2,12.8,29.1c0,0,14.8,6.8,29.1,0,0,0,16.9-12.2,9.2-34.6,0,0-4.9-15.2-26.3-30.8,0,0-7.3-9.2-6.4-16.7,0,0,.9-14.3,12.2-10.5,0,0,4.7,2.1,6,12Z"/>
  <g>
    <path class="st0" d="M495.7,588.9l12.8-3.5c1.9-.5,3.6-.6,5.1-.3,1.9.4,3.7,1.4,5.4,3.1s2.9,3.8,3.7,6.5.8,4.3.6,6.3c-.1,1.5-.6,2.9-1.4,4.3s-1.9,2.5-3.3,3.4c-1.1.7-2.6,1.3-4.5,1.9l-11.4,3.2-.3-1.3,2.3-.6c.6-.2,1-.4,1.2-.6s.2-.6,0-1l-5.5-19.9c0-.3-.3-.6-.6-.7s-.7-.1-1.1,0l-2.5.7-.3-1.3ZM505,587.7c-.5.1-.8.3-1,.6s-.2.6,0,1.1l5.4,19.7c.1.4.3.7.7.8s.8.1,1.5,0l2.1-.6c1.9-.5,3.4-1.5,4.5-2.8.7-.9,1.2-2,1.4-3.3.2-1.8,0-4-.8-6.8-1.1-4.1-2.7-6.9-4.7-8.5-1.7-1.3-3.7-1.6-6.2-.9l-2.8.8Z"/>
    <path class="st0" d="M581.2,567.6l13.2-1.4c2-.2,3.7,0,5.1.5,1.8.7,3.4,2,4.8,3.9s2.2,4.3,2.5,7,0,4.4-.4,6.3c-.4,1.5-1.1,2.8-2.1,4-1,1.2-2.3,2.1-3.8,2.8-1.2.5-2.8.9-4.8,1.1l-11.8,1.2v-1.3c-.1,0,2.3-.2,2.3-.2.6,0,1-.2,1.2-.4s.3-.5.3-1l-2.1-20.5c0-.4-.2-.6-.5-.8s-.6-.3-1.1-.2l-2.6.3v-1.3ZM590.6,567.9c-.5,0-.9.2-1.1.4s-.3.6-.3,1l2.1,20.3c0,.4.2.7.5.9s.8.2,1.5.2l2.2-.2c1.9-.2,3.6-.9,4.9-2,.9-.8,1.5-1.8,1.9-3,.5-1.7.6-4,.3-6.9-.4-4.3-1.5-7.3-3.2-9.1-1.4-1.5-3.4-2.2-6-1.9l-2.9.3Z"/>
    <path class="st0" d="M528,579.6l19.3-4.6,2.4,8.1-1.1.3c-1.1-2.5-2.2-4.1-3.4-4.9s-2.6-1-4.1-.7l-4.8,1.1c-.4,0-.7.3-.8.5-.1.3-.2.6,0,1l2.1,8.7,2.1-.5c1.1-.3,1.9-.9,2.4-1.8.5-1,.6-2.3.3-4l1.1-.3,2.7,11.3-1.1.3c-.5-1.9-1.2-3.1-2.1-3.7-.9-.6-2-.8-3.2-.5l-1.9.5,2.3,9.7c0,.4.3.6.5.7.3.1.7.1,1.2,0l3.8-.9c4.1-1,5.8-4.1,5.2-9.5l1.2-.3,1.7,9.2-20.1,4.8-.3-1.2,1.7-.4c.6-.2,1.1-.4,1.3-.7s.3-.6.2-1.1l-4.6-19.3c-.1-.4-.3-.7-.6-.9s-.7-.2-1.2,0l-2,.5-.3-1.2Z"/>
    <path class="st0" d="M615.3,563.2l19.8-.8.8,8.4h-1.1c-.6-2.6-1.3-4.4-2.4-5.4s-2.3-1.5-3.9-1.4l-4.9.2c-.4,0-.7.1-.9.4-.2.2-.3.6-.3,1l.4,8.9h2.1c1.1-.1,2.1-.6,2.7-1.4.7-.9,1-2.1,1-3.8h1.2s.5,11.5.5,11.5h-1.2c-.1-1.9-.6-3.2-1.3-4-.8-.8-1.8-1.2-3-1.1h-2c0,0,.4,10,.4,10,0,.4.1.6.4.8.3.2.7.3,1.2.2l3.9-.2c4.2-.2,6.5-3,6.9-8.4h1.2c0,0,0,9.3,0,9.3l-20.6.8v-1.3c0,0,1.7,0,1.7,0,.7,0,1.1-.2,1.4-.4s.4-.6.4-1l-.8-19.8c0-.4-.1-.8-.4-1s-.6-.3-1.1-.3h-2c0,0,0-1.2,0-1.2Z"/>
    <path class="st0" d="M569.2,572.5l1-2.5,1.2-.3,2,8.9-1.1.2c-1.3-2.6-2.7-4.4-4.3-5.3-1.6-1-3.3-1.3-5-.9s-2.5,1-3.3,2.1-1,2.2-.7,3.5.5,1.4,1,1.9c.5.5,1.1.9,1.9,1.1.8.2,2.2.3,4.2.3,2.8,0,4.9.2,6.1.6s2.2,1,2.9,1.8,1.2,1.8,1.5,3.1c.5,2.2.1,4.2-1,6s-2.9,2.9-5.3,3.4c-2.5.5-4.9.2-7.1-1l-1.4,2.7-1.2.3-2-9.5,1.2-.3c1,2.5,2.5,4.3,4.4,5.5s3.9,1.5,5.9,1.1,2.9-1.1,3.7-2.3,1.1-2.5.8-3.8-.5-1.4-1-1.9-1.2-.9-2.2-1.1-2.7-.4-5.3-.4c-2.8,0-4.8-.4-6-1-1.6-.8-2.7-2.3-3.1-4.3s-.2-4.1.9-5.7,2.7-2.7,4.8-3.2c1-.2,2-.2,3,0s2.1.6,3.3,1.2Z"/>
    <path class="st0" d="M666.8,561.5v22.7c0,.3.1.6.4.8.4.3.8.4,1.3.4h3.5v1.4h-13.1v-1.4h3c.6,0,1.1-.1,1.4-.4s.5-.7.5-1.2v-17.1c0-.4-.1-.6-.4-.9s-.6-.4-1.1-.4h-4v-1.3c1.9-.2,3.4-.6,4.6-1s2.2-.9,3.1-1.6h.8Z"/>
    <path class="st0" d="M687.9,575.1c-.8,1.1-1.8,2-2.8,2.5s-2.2.8-3.5.7-3.4-.8-4.8-2.1-2.1-3.2-2-5.6,1-4.4,2.7-6,3.6-2.3,5.9-2.3,4.5,1.2,6,3.3c1.6,2.1,2.3,5,2.1,8.7s-.7,5.7-1.7,7.7c-1,2.1-2.3,3.6-3.8,4.6s-3.3,1.4-5.1,1.3-3.2-.5-4.2-1.4c-1-.8-1.5-1.8-1.4-3s.3-1.3.7-1.8c.4-.4,1-.6,1.6-.6s1.1.2,1.5.7.6.9.6,1.4-.2.8-.6,1.3c-.2.3-.4.5-.4.8,0,.3.2.6.6.9s1,.4,1.9.4c1.2,0,2.3-.2,3.3-.9s1.8-1.7,2.4-3.3,1-3.6,1.1-6.1v-1.6ZM683.4,563.7c-1.3,0-2.5.5-3.4,1.5s-1.4,2.7-1.5,5c0,2.1.3,3.6,1.1,4.6s1.9,1.6,3.3,1.7,2.5-.4,3.5-1.5,1.5-2.5,1.6-4.5-.3-3.7-1.3-4.9-2.1-1.9-3.4-1.9Z"/>
    <path class="st0" d="M705.9,577.9c1.8,1,3,2.1,3.7,3.3s.9,2.6.6,4.2-1.2,3.5-2.6,4.7c-1.9,1.6-4.3,2.1-7.2,1.6-2.6-.4-4.5-1.4-5.8-2.8s-1.8-3.1-1.5-5,.9-2.5,1.9-3.4c1-.9,2.6-1.5,4.9-1.9-2.9-1.8-4.1-4.2-3.6-6.9s1.2-3.2,2.9-4.3,3.5-1.4,5.6-1.1,2.7.7,3.7,1.4,1.7,1.5,2.2,2.5.6,1.9.4,2.9c-.4,2.2-2.1,3.8-5.1,4.9ZM701.1,579.4c-1.8.4-3.1,1-3.9,1.8s-1.3,1.8-1.5,3.1,0,3.1.8,4.1,2.2,1.8,4,2.1,3.6.1,4.8-.6,2-1.9,2.2-3.4,0-2.5-.9-3.4-2.7-2.1-5.6-3.7ZM704.6,577.3c1.4-.5,2.3-1.1,2.8-1.7s.9-1.5,1.1-2.6,0-2.7-.7-3.6c-.7-.9-1.9-1.5-3.4-1.8s-2.8,0-3.8.5c-1,.6-1.6,1.5-1.8,2.7s0,2.2.7,3c.6.8,2.3,2,5.1,3.4Z"/>
    <path class="st0" d="M725.9,583.2c1.7,1.1,2.8,2.3,3.4,3.6s.7,2.7.3,4.2-1.5,3.4-3,4.5c-2,1.4-4.4,1.8-7.3,1.1s-4.4-1.7-5.5-3.3-1.5-3.3-1.1-5.1,1-2.4,2.1-3.3c1.1-.8,2.8-1.3,5-1.5-2.7-2.1-3.8-4.5-3.1-7.2s1.5-3.1,3.2-4.1,3.6-1.2,5.7-.6,2.7.9,3.6,1.7,1.6,1.6,2,2.6.4,2,.2,2.9c-.5,2.2-2.4,3.7-5.5,4.4ZM721,584.3c-1.8.3-3.2.8-4,1.5s-1.4,1.7-1.7,3-.2,3,.5,4.2,2,1.9,3.9,2.4c1.9.5,3.5.4,4.8-.3s2.1-1.7,2.5-3.2.1-2.5-.6-3.4-2.5-2.3-5.3-4.2ZM724.7,582.4c1.4-.4,2.4-.9,3-1.5s1-1.4,1.3-2.5.2-2.7-.4-3.7c-.6-1-1.7-1.7-3.3-2.1s-2.8-.3-3.8.2c-1,.5-1.7,1.4-2,2.6s-.1,2.2.4,3.1c.6.9,2.2,2.2,4.9,3.8Z"/>
  </g>
  <path class="st2" d="M481.1,307.6c-10.7,3.9-31.5,15.1-44.7,44.7,0,0,0,0,0,.1-1.1,1.8-26.3,43-12.8,83.8,0,0,0,.1,0,.2.5,1.1,7.1,14.7,19.7,19s1.2,1.9.2,2.5c-6.6,3.4-22.9,9.8-35.5-1.7,0,0-9-6-6.5-33.8,0,0,2.7-33.6,10.3-47.1,0,0,0-.1,0-.2.7-1.8,12.8-34.6,20.3-41.8,0,0,.2-.2.2-.3,1.3-2.2,17.3-29,48.3-28.2,1.5,0,1.8,2.1.4,2.6Z"/>
</svg>