<?xml version="1.0" encoding="UTF-8"?>
<svg id="Capa_1" xmlns="http://www.w3.org/2000/svg" version="1.1" viewBox="0 0 1160.7 660.9">
  <!-- Generator: Adobe Illustrator 29.2.1, SVG Export Plug-In . SVG Version: 2.1.0 Build 116)  -->
  <defs>
    <style>
      .st0, .st1 {
        fill: #134271;
      }

      .st2 {
        fill: #fec417;
      }

      .st3 {
        fill: #f6e329;
      }

      .st4, .st5 {
        fill: #4e7fa8;
      }

      .st6 {
        fill: #fff;
      }

      .st5, .st1, .st7 {
        display: none;
      }
    </style>
  </defs>
  <path class="st0" d="M327,474.8c1.5-6.5,7.8-41-19-59.1-10.5-7.1-23.3-9.7-35.8-7.7-17.8,2.7-44.5,14.2-59.6,56,0,0-33.4,84.8,40.9,145.5,1.3,1,2.5,2.1,3.7,3.3,8.9,8.8,64.6,56.3,188.8,22.3,1.5-.4,3.1-.9,4.6-1.5,21.1-7.9,189.8-69.5,257.9-30.1,1.6.9,3.3,1.8,5.1,2.5,8.2,3.5,33.2,15.8,46.1,41.2,0,0,14.9,26.3,37.8,3.6,7.7-7.7,12.7-17.7,14.4-28.5,2.7-18.3.4-48.9-35.9-71.9-3.2-2-6.7-3.7-10.3-4.9-18.9-6.5-82.4-23.4-193.2-2.6-1.1.2-2.1.4-3.2.7-15,3.8-136,33.7-176.9,26.3-2.8-.5-5.7-.7-8.6-.8-16.6-.3-71.2-7.5-57.3-91.4.2-.9.3-1.9.6-2.8Z"/>
  <path class="st4" d="M283.4,508.1l5.5-39.6s0,0,0,0c.3-1.4,7.5-36.9-31.1-.1-.1.1-.2.3-.3.4-2.2,4.3-33.7,68.4,21.8,115.5.2.2.4.3.7.4,5.2,1.2,33.3,33.9,70.9,28,1.6-.3,1.8-2.5.2-3-18.9-6-75.4-30-67.7-101.5Z"/>
  <path class="st4" d="M757.4,589.4s20.2,21.4,21.8,45.5c0,.3.3.5.6.5,3.2-.4,19.1-3.3,10.5-26.3,0,0,0,0,0,0-.2-.5-13-30.5-55.9-36.5-.6,0-.8.8-.3,1,5.7,2.1,14.8,6.6,23.3,15.8Z"/>
  <path class="st0" d="M92.3,353.4s-23.3-49.7-71.5,0c0,0-68.4,96.4,42.7,141.5,0,0,119.7,48.2,196.6-138.3,0,3.9,66.3,1.6,96.9-10.9,0,0-47.1,101.3,17.4,154.8,0,0,50.5,25.5,94.8-3.3,0,0,46,42,112-17.9,0,0,60,70.7,147.3.8,0,0,27.7,43.5,83.9,26.4,0,0-.5,107.3,119.2,94,0,0,111.1-5.5,94-148.9,0,0,170.2-57.1,128.2-200.1,0,0-22.5-52.9-68.4-47.4,0,0-42.7-6.2-69.9,42.7,0,0-61.4-39.6-110.4,21l-9.3-4.7s31.9-42.7,1.6-76.2c0,0,30.3-19.4-6.2-60.6,0,0-24.1-24.1-63.7,0,0,0-35.8-25.6-66.9.8,0,0-28.7-27.2-65.3,2.3,0,0-5.4-18.7-50.5-10.1,0,0,2.1-1.8-7.3-1.4h-56.3s-23.5-1.4-21.9,30.5c0,0-5.7,27.2,16.8,33.8l.4,70s-40.3-23.1-62.6,1.2c0,0-15.4-8.6-26-9.8,0,0,65.1-127.2-46.6-206.2,0,0-168.4-96.8-288.8,20.6,0,0-40.7,35.5-36.1,97.4,0,0,6.3,51,65.3,64.2,0,0-26.6,109.2-89.5,133.7Z"/>
  <path class="st2" d="M166.6,333.8c-.9.9-1.5,2-2,3.1-2.4,5.6-13.3,24.6-55.9,45.8,0,0-27.9,14.5-43.1-11.7s-.3-.6-.5-.9c-1-2.2-7.2-13.6-19.9,6.5,0,0-31.6,47.9,11.3,78.6.4.3.9.6,1.3.8,7.2,3.8,65.9,31.9,119.2-29.1,0,0,46.3-57,58.9-97.5.6-1.9,1.7-3.7,3.2-5s5-2.9,9.5-1.9c0,0,79,10.6,141.2-25.4,0,0,90.9-48.5,82.7-141,0-.3,0-.5,0-.8,0-3.9-2.7-56.8-43.1-82.9-.4-.3-.8-.5-1.2-.9-6.2-5.3-70.6-57.5-183.7-29.5,0,0-90,21.2-94.1,102.5,0,.5,0,1,0,1.5.5,5.7,4.8,38.1,40.3,41.3s11.8-4.2,12-10.5c1-25.4,10.4-89.7,79.8-106.9.4,0,.7-.2,1.1-.2,7.3-1.1,80.1-10.3,113.6,36.5.6.9,1.1,1.9,1.5,2.9,3.6,10.9,22,75.2-27.6,133.1,0,0-44.6,51.6-104.8,43.4,3.4.4-14.3,3.2-8-10.1s.3-.7.5-1.1l27.4-79.4c.2-.5.3-.9.6-1.4,2.5-5,18.8-36.7,28.8-42.2s1-.5,1.6-.6c1.7-.5,7.7-3.4-2-16.4-.3-.4-.6-.8-.8-1.2-2.4-4.2-18.1-28.7-51.7-5.8-.3.2-.5.4-.8.6-3.4,2.7-25.6,22.4-38.5,73.3,0,0-32.3,106.3-56.7,132.4Z"/>
  <path class="st3" d="M177.5,394.7c.4-.7-.5-1.5-1.2-1-10,6.8-49.4,32.8-79,37.3,0,0-27.6,3.3-44.9-3.3-.5-.2-1,0-1.1.6-.7,4.3,0,21.6,58.9,16.3-2.1.2,47.3-7.9,67.3-49.8Z"/>
  <path class="st2" d="M484.9,277.9s-70.3-23.3-106,101.4c0,.1,0,.2-.1.3-1.4,4.1-30.3,89.3,34.4,98.5-1.9-.3,26.6,6.1,57.8-25.8,3.4-3.5,9.2-1.9,10.4,2.7,2.4,9,8.3,19.7,23.1,21,0,0,27.8,7.8,54.9-24.4,0,0,33.2-37,34-44.4,0,0-9,66.1,54.1,68.7s.4,0,.6,0c3.4.5,42.2,5,86.3-46.2,3.5-4.1,10.2-2,10.9,3.4,2.3,19.9,12.9,49.8,56.6,42.3,0,0,58.5-6.5,85.3-106.2.1-.5.4-1,.6-1.4,2.9-5.4,15.6-70.2-23.1-86.8-.1,0-.3-.1-.4-.2-3.7-1.4-52.9-18.1-84.8,35.9-.1.2-.2.4-.3.5-1.8,2.4-16.5,22.4-21.3,38.4s-.3.8-.5,1.1c-3.6,6.6-39.6,72.1-73.4,75.2,0,0-42,9.8-26.7-58.5,0-.3.2-.6.3-1,1.7-4.3,14.8-36.9,24.8-44.6,0,0,8.6-6.2,14.3-6.9s.6,0,.9,0c2.2,0,10.8.8,6.9,6.5,0,0-15.1,19.6-.4,27,0,0,13.1,7.9,24.8-6.6s.7-1.1.9-1.6c2.5-6.5,15.4-45.4-21-65.3-.2,0-.3-.2-.5-.2-3.4-1.5-38.3-15.9-75.9,19.2-.4.4-.8.8-1.1,1.3-3.3,5.4-23.3,38.6-26.5,48.7-.1.4-.2.7-.4,1-3.2,6.2-35.2,66.7-55.4,75.2,0,0-15,9.4-9.9-18.8,0-.3.1-.5.2-.7,1.8-5.9,25.5-82.4,35.8-98.2.7-1.1,1.8-1.7,2.9-2.2s1.6-2.5-4.2-10.7-.3-.4-.4-.6c-1.2-2.3-10.1-17.2-30.6-19,0,0-5.3-4.4-12.6,16.2,0,.2-.1.3-.2.5l-4.6,10c-.2.3-.3.7-.6,1-.9,1.3-3.6,4.3-7.2,3s-3.3-2.4-3.8-4.4c-1.1-4.9-6.2-17.1-28.7-24.5Z"/>
  <path class="st3" d="M687.8,301.9c-9,4.3-27.2,14.5-34,28.1,0,0,0,0,0,0-.9,1.4-24.4,36.5-26.4,61.8,0,0-6.6,46.6,22.6,56.2.9.3,1,1.6.1,2-8.1,3.8-33.9,13.9-39.5-9.5,0,0,0-.1,0-.2-.1-2.3-2.3-44,4.3-59.2,0,0,0,0,0,0,.7-2.2,26.3-86.4,72.3-82.4s2.1,2.5.6,3.2Z"/>
  <path class="st3" d="M838,299.8c1.5.1,1.8,2.2.3,2.7-8.3,2.9-23.4,10.1-32.7,26,0,0-22.3,33.2-24.4,48.6,0,0-9.2,40.2.9,54.5,0,0,8,12.8,19,17.1.8.3.9,1.4,0,1.8-5.6,2.8-21.8,9.2-34.6-.9-.1,0-.2-.2-.3-.3-.8-1.5-12.1-17.8-4.6-51.1,0,0,15.3-61.6,33.8-77.3,0,0,0,0,.1-.1,1.1-1.4,17.5-23.1,42.2-21Z"/>
  <path class="st0" d="M498.2,337.7s2.5-17.4-14.7-15.6c0,0-25.8,9-39.3,45.6,0,0-19.6,44.2,0,58.9,0,0,17.8,9.4,39.1-33.8,0,0,17.8-34,14.9-55.3Z"/>
  <path class="st0" d="M865,333s-4.7-21.5-26.6,0c0,0-28,28.5-31.9,71,0,0-3.1,26.8,12.3,23.7,0,0,23.1-10.2,35.8-45.2,1,.2,13.5-28.9,10.4-49.5Z"/>
  <path class="st2" d="M908.5,433.1s-70.2,19.3-63.8,80.7c0,0,19.9,76,93.6,52.1,0,0,63.8-9.4,55-106.5,0,0,0-19.3-3.5-20.5,0,0-3-2.9,4.3-5.8,0,0,103.3-40.9,124.4-99.4,0,4,35.1-70.8-24-95.3,0,0-26.3-9.4-46.8,15.8,0,0-5.3,2.9,4.7,14,0,0,24,40.9-18.1,93.6,0,0-31.6,29.8-47.7,37.4,3.2-1.7-7.9,11.7-11.4-5.8,0,0-18.7-63.8-17-69.9,0,0-.6-15.6,14.6-6.2,0,0,38.6,8.9,26.3-34.4,0,0-13.6-31.7-62.6-3.5l-20.5,37.9s-6.4,12.9,2.9,31.1c0,0,17.5,52.1,18.1,64.3,0,0,4.1,8.2-2.9,10.5l-25.7,9.9Z"/>
  <path class="st0" d="M941,469.7s4.9-19-8.6-13.2c0,0-47.3,18.7-53.1,46.1,0,0,.9,19,28.2,10.4,0,0,27.3-10.7,33.5-43.3Z"/>
  <path class="st3" d="M894.2,461.6c-7.7,4.7-19.9,13.5-23.2,23.7s0,0,0,.1c-.7,1.3-14.6,27.1,0,46.1.5.7-.2,1.6-.9,1.2-3.9-1.8-11-7.1-16.1-22.4s0,0,0,0c-.3-1.2-5.6-25.9,14.7-39.1,0,0,12.1-8.9,24.4-12.1,1.6-.4,2.5,1.7,1.1,2.6Z"/>
  <path class="st3" d="M1077.7,269.1s-5.7-7.2-1.8-8.8c0,0,14.7-3.7,20.9,6.1,0,0,17.6,18.4,2.3,56.5,0,0,0,0,0,0-.4.8-17.9,37.7-43.5,50.6-.7.4-1.4-.5-.9-1.1,6.5-8.2,26-35.1,27-63.8,0,0,1-31.3-3.9-39.5Z"/>
  <polygon class="st6" points="602.1 158.4 602.1 249.6 619 249.6 619 158.4 635.3 158.4 635.3 142.7 584.9 142.7 584.9 158.4 602.1 158.4"/>
  <polygon class="st6" points="651.9 142.7 634 249.6 650.2 249.6 654.9 224.8 670.9 224.8 675.7 249.6 692.8 249.6 674.9 142.7 651.9 142.7"/>
  <polygon class="st0" points="657.2 208.6 668.6 208.6 663.4 170.7 657.2 208.6"/>
  <path class="st6" d="M737.8,179.4v-14.3s-1.9-6.7-9.3-6.9c1.1,0-8.2-.4-8.6,6.5s0,62.5,0,62.5c0,0,.7,6.9,8.8,7.4,8.2.4,9-6.9,9-6.9v-17.3h17v20.8s-2.1,19.8-25.9,20.2c-23.8.4-25.7-22.1-25.7-22.1v-69.7s6.5-19.8,25.8-18.7c19.3,1.1,25.8,22.1,25.8,22.1v16.4h-17Z"/>
  <path class="st6" d="M819,161.9s-3.2-21.5-25.3-21.1c-22.1.5-25.5,19.8-25.5,19.8v71.8s2.5,18.3,25.4,18.9c22.8.6,25.4-20,25.4-20v-69.4Z"/>
  <path class="st0" d="M801.5,164.9s-.8-6.5-7.9-6.9c-7-.4-9.8,5.3-9.8,5.3v64.4s1.7,6.5,8.8,6.5,8.8-5.5,8.8-5.5v-63.8Z"/>
  <path class="st6" d="M869.3,168.6l16.4-2.7s-1.5-24.9-25.9-25.1c-24.4-.2-26.5,22.6-26.5,22.6v13s6.7,13.2,14.1,19.6l17.9,18.1s6.5,8.8,1.9,16.2c0,0-4.2,8.2-13,3.8,0,0-6.7-5.1-6.1-14.7h-14.7s-3.8,21.9,12.6,28.6c0,0,14.5,6.7,28.6,0,0,0,16.6-12,9-34.1,0,0-4.8-14.9-25.9-30.3,0,0-7.2-9-6.3-16.4,0,0,.8-14.1,12-10.3,0,0,4.6,2.1,5.9,11.8Z"/>
  <g>
    <path class="st6" d="M487.9,579.7l12.6-3.5c1.9-.5,3.5-.6,5-.3,1.9.4,3.6,1.4,5.3,3s2.9,3.8,3.6,6.4.8,4.3.6,6.2c-.1,1.5-.6,2.9-1.4,4.2s-1.9,2.4-3.3,3.3c-1,.7-2.5,1.3-4.5,1.8l-11.3,3.1-.3-1.2,2.3-.6c.6-.2,1-.4,1.1-.6s.2-.6,0-1l-5.4-19.6c0-.3-.3-.6-.6-.7s-.7-.1-1.1,0l-2.5.7-.3-1.2ZM497.1,578.5c-.5.1-.8.3-1,.6s-.2.6,0,1l5.3,19.4c.1.4.3.7.7.8s.8.1,1.5,0l2.1-.6c1.9-.5,3.3-1.4,4.5-2.8.7-.9,1.2-2,1.3-3.3.2-1.7,0-4-.8-6.7-1.1-4.1-2.6-6.8-4.6-8.3-1.6-1.3-3.7-1.6-6.1-.9l-2.8.8Z"/>
    <path class="st6" d="M572.1,558.7l13-1.3c1.9-.2,3.6,0,5,.5,1.8.7,3.3,2,4.7,3.9s2.2,4.2,2.5,6.9,0,4.3-.4,6.2c-.4,1.4-1.1,2.7-2.1,3.9-1,1.2-2.3,2.1-3.8,2.8-1.1.5-2.7.9-4.7,1.1l-11.6,1.2v-1.3c-.1,0,2.2-.2,2.2-.2.6,0,1-.2,1.2-.4s.3-.5.3-.9l-2.1-20.2c0-.4-.2-.6-.5-.8s-.6-.3-1.1-.2l-2.6.3v-1.3ZM581.4,559c-.5,0-.9.2-1.1.4s-.3.6-.3,1l2.1,20c0,.4.2.7.5.9s.8.2,1.5.2l2.1-.2c1.9-.2,3.5-.9,4.9-2,.9-.8,1.5-1.7,1.9-3,.5-1.7.6-3.9.3-6.8-.4-4.2-1.5-7.2-3.1-9-1.4-1.5-3.4-2.1-5.9-1.9l-2.9.3Z"/>
    <path class="st6" d="M519.7,570.5l19-4.5,2.4,8-1.1.3c-1-2.5-2.1-4.1-3.3-4.9s-2.5-1-4-.7l-4.7,1.1c-.4,0-.6.3-.8.5-.1.3-.2.6,0,1l2,8.5,2.1-.5c1.1-.3,1.9-.9,2.4-1.8.5-1,.6-2.2.2-3.9l1.1-.3,2.6,11.1-1.1.3c-.5-1.8-1.2-3.1-2.1-3.7-.9-.6-1.9-.8-3.1-.5l-1.9.4,2.3,9.5c0,.3.3.6.5.7.3.1.7.1,1.2,0l3.7-.9c4-1,5.7-4.1,5.1-9.4l1.2-.3,1.7,9-19.8,4.7-.3-1.2,1.6-.4c.6-.2,1.1-.4,1.3-.7s.3-.6.2-1.1l-4.5-19c0-.4-.3-.7-.6-.9s-.7-.2-1.1,0l-2,.5-.3-1.2Z"/>
    <path class="st6" d="M605.7,554.4l19.5-.8.8,8.3h-1.1c-.6-2.6-1.3-4.4-2.3-5.4s-2.3-1.5-3.8-1.4l-4.8.2c-.4,0-.7.1-.9.4-.2.2-.3.5-.3,1l.4,8.8h2.1c1.1-.1,2-.6,2.7-1.4.7-.8,1-2.1,1-3.8h1.1s.5,11.4.5,11.4h-1.1c-.1-1.8-.6-3.2-1.3-4-.7-.8-1.7-1.2-3-1.1h-1.9c0,0,.4,9.9.4,9.9,0,.4.1.6.4.8.2.2.6.3,1.2.2l3.8-.2c4.1-.2,6.4-2.9,6.8-8.2h1.2s0,9.1,0,9.1l-20.3.8v-1.2c0,0,1.6,0,1.6,0,.7,0,1.1-.2,1.4-.4s.4-.6.4-1l-.8-19.5c0-.4-.1-.8-.4-1s-.6-.3-1.1-.3h-2c0,0,0-1.2,0-1.2Z"/>
    <path class="st6" d="M560.3,563.5l1-2.4,1.2-.3,2,8.7-1.1.2c-1.3-2.5-2.7-4.3-4.3-5.2-1.6-1-3.2-1.2-4.9-.9s-2.5,1-3.2,2-1,2.2-.7,3.4.5,1.4,1,1.9c.5.5,1.1.9,1.9,1.1.8.2,2.1.3,4.1.3,2.8,0,4.8.2,6,.6s2.2.9,2.9,1.7,1.2,1.8,1.5,3c.5,2.2.1,4.1-1,5.9s-2.9,2.9-5.2,3.4c-2.5.5-4.8.2-7-1l-1.4,2.6-1.2.3-2-9.3,1.2-.3c1,2.5,2.5,4.3,4.4,5.4,1.9,1.1,3.8,1.5,5.8,1.1s2.8-1.1,3.6-2.3,1.1-2.4.8-3.8-.5-1.4-1-1.9-1.2-.9-2.1-1.1-2.6-.3-5.2-.4c-2.8,0-4.8-.4-5.9-.9-1.6-.8-2.6-2.2-3-4.3s-.2-4,.9-5.6,2.6-2.7,4.7-3.1,2-.2,3,0,2.1.6,3.2,1.2Z"/>
    <path class="st6" d="M656.4,552.7v22.3c0,.3.1.6.4.8.3.3.8.4,1.3.4h3.5v1.3h-12.9v-1.3h3c.6,0,1.1-.1,1.4-.4s.4-.7.4-1.2v-16.9c0-.3-.1-.6-.4-.9s-.6-.4-1.1-.4h-4v-1.2c1.9-.2,3.4-.6,4.5-1s2.2-.9,3.1-1.6h.8Z"/>
    <path class="st6" d="M677.1,566.1c-.8,1.1-1.7,1.9-2.8,2.5s-2.2.8-3.5.7-3.3-.8-4.7-2-2-3.1-1.9-5.5,1-4.3,2.6-5.9,3.6-2.3,5.8-2.2c2.4.1,4.4,1.2,5.9,3.3,1.5,2.1,2.2,5,2.1,8.6s-.7,5.6-1.7,7.6-2.2,3.5-3.8,4.5-3.2,1.4-5.1,1.3-3.2-.5-4.2-1.4-1.5-1.8-1.4-2.9.3-1.3.7-1.7c.4-.4,1-.6,1.6-.6s1.1.2,1.4.6.6.9.5,1.4-.2.8-.6,1.3c-.2.3-.4.5-.4.7,0,.3.2.6.5.9s1,.4,1.9.4c1.2,0,2.3-.2,3.3-.9s1.8-1.7,2.4-3.2,1-3.5,1.1-6v-1.6ZM672.7,554.9c-1.3,0-2.4.4-3.3,1.5s-1.4,2.7-1.5,4.9c0,2,.3,3.5,1.1,4.6s1.9,1.6,3.2,1.6,2.5-.4,3.5-1.5,1.5-2.5,1.6-4.4-.3-3.6-1.2-4.8-2-1.8-3.4-1.9Z"/>
    <path class="st6" d="M694.8,568.9c1.7,1,2.9,2.1,3.6,3.3s.8,2.6.6,4.1-1.2,3.4-2.6,4.6c-1.8,1.5-4.2,2.1-7,1.6-2.5-.4-4.4-1.3-5.7-2.8-1.3-1.5-1.7-3.1-1.5-4.9s.8-2.5,1.8-3.4c1-.9,2.6-1.5,4.8-1.9-2.8-1.8-4-4.1-3.6-6.8s1.2-3.2,2.8-4.3,3.4-1.4,5.5-1.1,2.7.7,3.7,1.4,1.7,1.5,2.1,2.4.6,1.9.4,2.8c-.4,2.2-2,3.8-5,4.8ZM690.1,570.3c-1.8.4-3,1-3.8,1.8s-1.3,1.8-1.5,3,0,3,.8,4.1,2.1,1.8,4,2.1,3.5.1,4.7-.6,1.9-1.9,2.2-3.4,0-2.5-.9-3.3-2.7-2.1-5.5-3.7ZM693.6,568.2c1.3-.5,2.3-1.1,2.8-1.7s.9-1.5,1.1-2.6,0-2.6-.7-3.6c-.7-.9-1.8-1.5-3.4-1.8s-2.8,0-3.7.5c-1,.6-1.5,1.5-1.7,2.7s0,2.2.6,3c.6.8,2.3,1.9,5.1,3.4Z"/>
    <path class="st6" d="M714.6,574.1c1.7,1.1,2.8,2.3,3.3,3.6s.6,2.7.3,4.2c-.4,1.8-1.4,3.3-2.9,4.4-2,1.4-4.3,1.8-7.1,1.1s-4.3-1.7-5.4-3.2-1.5-3.2-1.1-5,1-2.4,2.1-3.2c1.1-.8,2.7-1.3,4.9-1.5-2.7-2-3.7-4.4-3-7.1s1.5-3.1,3.1-4,3.5-1.1,5.6-.6,2.6.9,3.5,1.6,1.6,1.6,1.9,2.6.4,1.9.2,2.9c-.5,2.1-2.3,3.6-5.4,4.4ZM709.7,575.1c-1.8.3-3.1.8-3.9,1.5s-1.4,1.7-1.7,2.9-.2,3,.5,4.1,2,1.9,3.8,2.4c1.9.5,3.5.4,4.8-.3s2.1-1.7,2.4-3.2.1-2.5-.6-3.4-2.5-2.3-5.2-4.1ZM713.4,573.3c1.4-.4,2.3-.9,2.9-1.4s1-1.4,1.3-2.5.2-2.6-.4-3.6c-.6-1-1.7-1.7-3.2-2s-2.8-.3-3.8.2c-1,.5-1.7,1.4-1.9,2.5s-.1,2.2.4,3c.6.9,2.1,2.1,4.8,3.8Z"/>
  </g>
  <path class="st3" d="M473.5,302.8c-10.5,3.9-31.1,14.9-44,44,0,0,0,0,0,.1-1.1,1.8-25.9,42.4-12.6,82.5,0,0,0,.1,0,.2.5,1.1,7,14.5,19.4,18.7s1.2,1.9.2,2.5c-6.5,3.3-22.6,9.7-34.9-1.6,0,0-8.9-5.9-6.4-33.3,0,0,2.7-33.1,10.1-46.3,0,0,0-.1,0-.2.7-1.8,12.6-34.1,20-41.1,0,0,.2-.2.2-.3,1.3-2.2,17-28.5,47.5-27.7,1.5,0,1.8,2.1.4,2.6Z"/>
  <path class="st1" d="M713.8,647.8c5.8.6,9.2-6.3,5.2-10.5-12-12.7-33.2-27.7-66.8-28.9-58.8-2.2-122.5,13.8-161.5,34.5-39.1,20.6,61,86.8,139.1,35.7,42.3-27.7,68.7-32.3,84-30.7Z"/>
  <g class="st7">
    <path class="st6" d="M524.7,658.2c1.4.4,3.3.6,5.1.1,2.7-.7,3.9-2.5,3.4-4.6-.5-1.9-1.9-2.7-4.9-3.1-3.7-.3-6.2-1.6-6.9-4.5-.8-3.2,1.2-6.3,5.2-7.3,2.1-.5,3.8-.4,4.8-.1l-.2,2.4c-.8-.2-2.3-.5-4.2,0-2.8.7-3.5,2.7-3.1,4.1.5,1.9,2,2.6,5.1,2.9,3.8.5,6,1.7,6.8,4.7.8,3.2-.8,6.5-5.7,7.8-2,.5-4.3.5-5.6,0v-2.4Z"/>
    <path class="st6" d="M549,655.7l-.6-1.8h0c-.6,1.4-1.9,2.8-4,3.3-3,.7-5-1.1-5.5-3.2-.8-3.6,1.9-6.3,7.7-7.6v-.3c-.4-1.2-1.2-3.4-4.2-2.7-1.4.3-2.7,1.1-3.6,2l-1-1.6c1-1.1,2.7-2,4.6-2.4,4.5-1,6.4,1.8,7,4.8l1.3,5.6c.3,1.3.6,2.5,1.1,3.5l-2.5.6ZM546.9,648.2c-3,.6-6.2,1.9-5.5,4.8.4,1.8,1.8,2.3,3.1,2,1.9-.4,2.9-2,3-3.3,0-.3,0-.6,0-.9l-.6-2.6Z"/>
    <path class="st6" d="M553.3,643.4c-.3-1.5-.6-2.8-.9-4l2.4-.5.7,2.4h0c.5-1.6,1.9-3.3,4.4-3.8,2.1-.4,5.5.2,6.6,5.3l1.8,8.9-2.7.5-1.7-8.6c-.5-2.4-1.8-4.2-4.4-3.7-1.8.4-2.9,1.9-3.1,3.5,0,.4,0,.8,0,1.3l1.8,9-2.7.5-2.2-10.9Z"/>
    <path class="st6" d="M579.1,649.7l-3.3-21,3-.5,8.4,9.6c1.9,2.2,3.5,4.2,4.8,6.2h0c-.7-2.8-1.1-5.3-1.7-8.6l-1.4-8.8,2.6-.4,3.3,21-2.7.4-8.3-9.6c-1.8-2.1-3.6-4.3-5-6.4h0c.6,2.7,1,5.2,1.6,8.7l1.4,9-2.6.4Z"/>
    <path class="st6" d="M600.2,626.9c.1.9-.4,1.8-1.5,1.9-1,.1-1.8-.5-1.9-1.5-.1-1,.5-1.8,1.5-1.9,1-.1,1.8.5,1.9,1.5ZM599.6,646.6l-1.9-15.1,2.7-.3,1.9,15.1-2.7.3Z"/>
    <path class="st6" d="M617.6,644c-.7.4-2.2,1.1-4.3,1.3-4.6.5-7.9-2.3-8.3-7-.5-4.7,2.4-8.4,7.3-8.9,1.6-.2,3.1,0,3.9.4l-.4,2.2c-.7-.3-1.8-.5-3.3-.4-3.5.4-5.1,3.1-4.8,6.3.4,3.5,2.8,5.4,5.8,5.1,1.6-.2,2.6-.7,3.3-1.1l.7,2Z"/>
    <path class="st6" d="M633.7,635.7c.4,5.6-3.4,8.3-7.1,8.6-4.1.3-7.5-2.6-7.8-7.4-.3-5.1,2.8-8.3,7-8.6,4.4-.3,7.5,2.7,7.8,7.4ZM621.7,636.7c.2,3.3,2.3,5.7,5,5.6,2.6-.2,4.5-2.8,4.2-6.2-.2-2.6-1.7-5.8-4.9-5.6-3.3.2-4.5,3.3-4.3,6.2Z"/>
    <path class="st6" d="M636.9,621.1h2.8c0,0,.6,22.3.6,22.3h-2.8c0,0-.6-22.3-.6-22.3Z"/>
    <path class="st6" d="M653.2,643.3l-.2-1.9h0c-.9,1.2-2.5,2.2-4.7,2.2-3.1,0-4.6-2.2-4.6-4.4,0-3.7,3.3-5.7,9.2-5.6v-.3c0-1.3-.3-3.5-3.4-3.6-1.4,0-2.9.4-4,1.1l-.6-1.8c1.3-.8,3.1-1.3,5-1.3,4.7,0,5.8,3.2,5.7,6.3v5.7c0,1.3,0,2.6.2,3.7h-2.5ZM652.9,635.5c-3,0-6.5.4-6.5,3.4,0,1.8,1.2,2.7,2.6,2.7,2,0,3.3-1.2,3.7-2.5,0-.3.2-.6.2-.9v-2.6ZM654.4,621.5l-3.9,4.5h-2s2.8-4.5,2.8-4.5h3.1Z"/>
    <path class="st6" d="M659.5,640.7c.8.6,2.2,1.2,3.6,1.3,2,.1,3-.8,3.1-2.1,0-1.3-.7-2.1-2.7-3-2.7-1.1-3.9-2.7-3.7-4.6.2-2.5,2.3-4.3,5.5-4.1,1.5,0,2.9.6,3.7,1.2l-.8,2c-.6-.4-1.6-1-3.1-1.1-1.6-.1-2.6.8-2.7,1.9,0,1.3.8,1.9,2.7,2.8,2.6,1.2,3.8,2.6,3.7,4.8-.2,2.7-2.4,4.4-6,4.2-1.7-.1-3.2-.6-4.2-1.3l.8-2.1Z"/>
  </g>
  <path class="st5" d="M560.8,677.1l-27.5-3.1s0,0,0,0c-1-.1-25.6-3.8-.5,11.7,0,0,.2,0,.3.1,3,.9,47.2,14.4,80.8-5.2.1,0,.2-.1.3-.2.9-1.9,24.1-11.6,20.5-25.8-.2-.6-1.7-.7-2.1-.2-4.4,6.9-22,27.5-71.7,22.7Z"/>
</svg>